<?xml version="1.0" encoding="UTF-8"?>
<svg id="Layer_2" data-name="Layer 2" xmlns="http://www.w3.org/2000/svg" xmlns:xlink="http://www.w3.org/1999/xlink" viewBox="0 0 2101 1001">
  <defs>
    <style>
      .cls-1 {
        opacity: .6;
      }

      .cls-1, .cls-2, .cls-3 {
        fill: #fff;
      }

      .cls-1, .cls-3 {
        stroke: #000;
        stroke-miterlimit: 10;
      }

      .cls-4 {
        fill: none;
      }

      .cls-5 {
        fill: #ff1d25;
      }

      .cls-6 {
        clip-path: url(#clippath);
      }
    </style>
    <clipPath id="clippath">
      <rect class="cls-4" x=".5" y=".5" width="2100" height="1000"/>
    </clipPath>
  </defs>
  <g id="Layer_1-2" data-name="Layer 1">
    <g>
      <g class="cls-6">
        <rect class="cls-3" x=".5" y=".5" width="2100" height="1000"/>
        <g>
          <path class="cls-2" d="M420.87,40.2c-2.53,28.16-26.27,50.3-55.07,50.3s-52.54-22.14-55.07-50.3h32.44c2.29,10.39,11.57,18.18,22.63,18.18s20.34-7.79,22.63-18.18h32.44Z"/>
          <path class="cls-5" d="M420.87,30.2h-32.44c-2.29-10.39-11.57-18.18-22.63-18.18s-20.34,7.79-22.63,18.18h-32.44c2.53-28.16,26.27-50.3,55.07-50.3s52.54,22.14,55.07,50.3Z"/>
          <path d="M365.8-30.1c-36.01,0-65.3,29.29-65.3,65.3s29.29,65.3,65.3,65.3,65.3-29.29,65.3-65.3-29.29-65.3-65.3-65.3ZM365.8-20.1c28.8,0,52.54,22.14,55.07,50.3h-32.44c-2.29-10.39-11.57-18.18-22.63-18.18s-20.34,7.79-22.63,18.18h-32.44c2.53-28.16,26.27-50.3,55.07-50.3ZM378.98,35.2c0,1.77-.35,3.46-.99,5-1.97,4.8-6.69,8.18-12.19,8.18s-10.22-3.38-12.19-8.18c-.64-1.54-.99-3.23-.99-5s.35-3.46.99-5c1.97-4.8,6.69-8.18,12.19-8.18s10.22,3.38,12.19,8.18c.64,1.54.99,3.23.99,5ZM365.8,90.5c-28.8,0-52.54-22.14-55.07-50.3h32.44c2.29,10.39,11.57,18.18,22.63,18.18s20.34-7.79,22.63-18.18h32.44c-2.53,28.16-26.27,50.3-55.07,50.3Z"/>
          <path class="cls-2" d="M378.98,35.2c0,1.77-.35,3.46-.99,5-1.97,4.8-6.69,8.18-12.19,8.18s-10.22-3.38-12.19-8.18c-.64-1.54-.99-3.23-.99-5s.35-3.46.99-5c1.97-4.8,6.69-8.18,12.19-8.18s10.22,3.38,12.19,8.18c.64,1.54.99,3.23.99,5Z"/>
        </g>
        <g>
          <path class="cls-2" d="M120.87,140.2c-2.53,28.16-26.27,50.3-55.07,50.3s-52.54-22.14-55.07-50.3h32.44c2.29,10.39,11.57,18.18,22.63,18.18s20.34-7.79,22.63-18.18h32.44Z"/>
          <path class="cls-5" d="M120.87,130.2h-32.44c-2.29-10.39-11.57-18.18-22.63-18.18s-20.34,7.79-22.63,18.18H10.73c2.53-28.16,26.27-50.3,55.07-50.3s52.54,22.14,55.07,50.3Z"/>
          <path d="M65.8,69.9C29.79,69.9.5,99.19.5,135.2s29.29,65.3,65.3,65.3,65.3-29.29,65.3-65.3-29.29-65.3-65.3-65.3ZM65.8,79.9c28.8,0,52.54,22.14,55.07,50.3h-32.44c-2.29-10.39-11.57-18.18-22.63-18.18s-20.34,7.79-22.63,18.18H10.73c2.53-28.16,26.27-50.3,55.07-50.3ZM78.98,135.2c0,1.77-.35,3.46-.99,5-1.97,4.8-6.69,8.18-12.19,8.18s-10.22-3.38-12.19-8.18c-.64-1.54-.99-3.23-.99-5s.35-3.46.99-5c1.97-4.8,6.69-8.18,12.19-8.18s10.22,3.38,12.19,8.18c.64,1.54.99,3.23.99,5ZM65.8,190.5c-28.8,0-52.54-22.14-55.07-50.3h32.44c2.29,10.39,11.57,18.18,22.63,18.18s20.34-7.79,22.63-18.18h32.44c-2.53,28.16-26.27,50.3-55.07,50.3Z"/>
          <path class="cls-2" d="M78.98,135.2c0,1.77-.35,3.46-.99,5-1.97,4.8-6.69,8.18-12.19,8.18s-10.22-3.38-12.19-8.18c-.64-1.54-.99-3.23-.99-5s.35-3.46.99-5c1.97-4.8,6.69-8.18,12.19-8.18s10.22,3.38,12.19,8.18c.64,1.54.99,3.23.99,5Z"/>
        </g>
        <g>
          <path class="cls-2" d="M1220.87,40.2c-2.53,28.16-26.27,50.3-55.07,50.3s-52.54-22.14-55.07-50.3h32.44c2.29,10.39,11.57,18.18,22.63,18.18s20.34-7.79,22.63-18.18h32.44Z"/>
          <path class="cls-5" d="M1220.87,30.2h-32.44c-2.29-10.39-11.57-18.18-22.63-18.18s-20.34,7.79-22.63,18.18h-32.44c2.53-28.16,26.27-50.3,55.07-50.3s52.54,22.14,55.07,50.3Z"/>
          <path d="M1165.8-30.1c-36.01,0-65.3,29.29-65.3,65.3s29.29,65.3,65.3,65.3,65.3-29.29,65.3-65.3-29.29-65.3-65.3-65.3ZM1165.8-20.1c28.8,0,52.54,22.14,55.07,50.3h-32.44c-2.29-10.39-11.57-18.18-22.63-18.18s-20.34,7.79-22.63,18.18h-32.44c2.53-28.16,26.27-50.3,55.07-50.3ZM1178.98,35.2c0,1.77-.35,3.46-.99,5-1.97,4.8-6.69,8.18-12.19,8.18s-10.22-3.38-12.19-8.18c-.64-1.54-.99-3.23-.99-5s.35-3.46.99-5c1.97-4.8,6.69-8.18,12.19-8.18s10.22,3.38,12.19,8.18c.64,1.54.99,3.23.99,5ZM1165.8,90.5c-28.8,0-52.54-22.14-55.07-50.3h32.44c2.29,10.39,11.57,18.18,22.63,18.18s20.34-7.79,22.63-18.18h32.44c-2.53,28.16-26.27,50.3-55.07,50.3Z"/>
          <path class="cls-2" d="M1178.98,35.2c0,1.77-.35,3.46-.99,5-1.97,4.8-6.69,8.18-12.19,8.18s-10.22-3.38-12.19-8.18c-.64-1.54-.99-3.23-.99-5s.35-3.46.99-5c1.97-4.8,6.69-8.18,12.19-8.18s10.22,3.38,12.19,8.18c.64,1.54.99,3.23.99,5Z"/>
        </g>
        <g>
          <path class="cls-2" d="M920.87,140.2c-2.53,28.16-26.27,50.3-55.07,50.3s-52.54-22.14-55.07-50.3h32.44c2.29,10.39,11.57,18.18,22.63,18.18s20.34-7.79,22.63-18.18h32.44Z"/>
          <path class="cls-5" d="M920.87,130.2h-32.44c-2.29-10.39-11.57-18.18-22.63-18.18s-20.34,7.79-22.63,18.18h-32.44c2.53-28.16,26.27-50.3,55.07-50.3s52.54,22.14,55.07,50.3Z"/>
          <path d="M865.8,69.9c-36.01,0-65.3,29.29-65.3,65.3s29.29,65.3,65.3,65.3,65.3-29.29,65.3-65.3-29.29-65.3-65.3-65.3ZM865.8,79.9c28.8,0,52.54,22.14,55.07,50.3h-32.44c-2.29-10.39-11.57-18.18-22.63-18.18s-20.34,7.79-22.63,18.18h-32.44c2.53-28.16,26.27-50.3,55.07-50.3ZM878.98,135.2c0,1.77-.35,3.46-.99,5-1.97,4.8-6.69,8.18-12.19,8.18s-10.22-3.38-12.19-8.18c-.64-1.54-.99-3.23-.99-5s.35-3.46.99-5c1.97-4.8,6.69-8.18,12.19-8.18s10.22,3.38,12.19,8.18c.64,1.54.99,3.23.99,5ZM865.8,190.5c-28.8,0-52.54-22.14-55.07-50.3h32.44c2.29,10.39,11.57,18.18,22.63,18.18s20.34-7.79,22.63-18.18h32.44c-2.53,28.16-26.27,50.3-55.07,50.3Z"/>
          <path class="cls-2" d="M878.98,135.2c0,1.77-.35,3.46-.99,5-1.97,4.8-6.69,8.18-12.19,8.18s-10.22-3.38-12.19-8.18c-.64-1.54-.99-3.23-.99-5s.35-3.46.99-5c1.97-4.8,6.69-8.18,12.19-8.18s10.22,3.38,12.19,8.18c.64,1.54.99,3.23.99,5Z"/>
        </g>
        <g>
          <path class="cls-2" d="M620.87,240.2c-2.53,28.16-26.27,50.3-55.07,50.3s-52.54-22.14-55.07-50.3h32.44c2.29,10.39,11.57,18.18,22.63,18.18s20.34-7.79,22.63-18.18h32.44Z"/>
          <path class="cls-5" d="M620.87,230.2h-32.44c-2.29-10.39-11.57-18.18-22.63-18.18s-20.34,7.79-22.63,18.18h-32.44c2.53-28.16,26.27-50.3,55.07-50.3s52.54,22.14,55.07,50.3Z"/>
          <path d="M565.8,169.9c-36.01,0-65.3,29.29-65.3,65.3s29.29,65.3,65.3,65.3,65.3-29.29,65.3-65.3-29.29-65.3-65.3-65.3ZM565.8,179.9c28.8,0,52.54,22.14,55.07,50.3h-32.44c-2.29-10.39-11.57-18.18-22.63-18.18s-20.34,7.79-22.63,18.18h-32.44c2.53-28.16,26.27-50.3,55.07-50.3ZM578.98,235.2c0,1.77-.35,3.46-.99,5-1.97,4.8-6.69,8.18-12.19,8.18s-10.22-3.38-12.19-8.18c-.64-1.54-.99-3.23-.99-5s.35-3.46.99-5c1.97-4.8,6.69-8.18,12.19-8.18s10.22,3.38,12.19,8.18c.64,1.54.99,3.23.99,5ZM565.8,290.5c-28.8,0-52.54-22.14-55.07-50.3h32.44c2.29,10.39,11.57,18.18,22.63,18.18s20.34-7.79,22.63-18.18h32.44c-2.53,28.16-26.27,50.3-55.07,50.3Z"/>
          <path class="cls-2" d="M578.98,235.2c0,1.77-.35,3.46-.99,5-1.97,4.8-6.69,8.18-12.19,8.18s-10.22-3.38-12.19-8.18c-.64-1.54-.99-3.23-.99-5s.35-3.46.99-5c1.97-4.8,6.69-8.18,12.19-8.18s10.22,3.38,12.19,8.18c.64,1.54.99,3.23.99,5Z"/>
        </g>
        <g>
          <path class="cls-2" d="M320.87,340.2c-2.53,28.16-26.27,50.3-55.07,50.3s-52.54-22.14-55.07-50.3h32.44c2.29,10.39,11.57,18.18,22.63,18.18s20.34-7.79,22.63-18.18h32.44Z"/>
          <path class="cls-5" d="M320.87,330.2h-32.44c-2.29-10.39-11.57-18.18-22.63-18.18s-20.34,7.79-22.63,18.18h-32.44c2.53-28.16,26.27-50.3,55.07-50.3s52.54,22.14,55.07,50.3Z"/>
          <path d="M265.8,269.9c-36.01,0-65.3,29.29-65.3,65.3s29.29,65.3,65.3,65.3,65.3-29.29,65.3-65.3-29.29-65.3-65.3-65.3ZM265.8,279.9c28.8,0,52.54,22.14,55.07,50.3h-32.44c-2.29-10.39-11.57-18.18-22.63-18.18s-20.34,7.79-22.63,18.18h-32.44c2.53-28.16,26.27-50.3,55.07-50.3ZM278.98,335.2c0,1.77-.35,3.46-.99,5-1.97,4.8-6.69,8.18-12.19,8.18s-10.22-3.38-12.19-8.18c-.64-1.54-.99-3.23-.99-5s.35-3.46.99-5c1.97-4.8,6.69-8.18,12.19-8.18s10.22,3.38,12.19,8.18c.64,1.54.99,3.23.99,5ZM265.8,390.5c-28.8,0-52.54-22.14-55.07-50.3h32.44c2.29,10.39,11.57,18.18,22.63,18.18s20.34-7.79,22.63-18.18h32.44c-2.53,28.16-26.27,50.3-55.07,50.3Z"/>
          <path class="cls-2" d="M278.98,335.2c0,1.77-.35,3.46-.99,5-1.97,4.8-6.69,8.18-12.19,8.18s-10.22-3.38-12.19-8.18c-.64-1.54-.99-3.23-.99-5s.35-3.46.99-5c1.97-4.8,6.69-8.18,12.19-8.18s10.22,3.38,12.19,8.18c.64,1.54.99,3.23.99,5Z"/>
        </g>
        <g>
          <path class="cls-2" d="M20.87,440.2c-2.53,28.16-26.27,50.3-55.07,50.3s-52.54-22.14-55.07-50.3h32.44c2.29,10.39,11.57,18.18,22.63,18.18s20.34-7.79,22.63-18.18H20.87Z"/>
          <path class="cls-5" d="M20.87,430.2H-11.57c-2.29-10.39-11.57-18.18-22.63-18.18s-20.34,7.79-22.63,18.18h-32.44c2.53-28.16,26.27-50.3,55.07-50.3s52.54,22.14,55.07,50.3Z"/>
          <path d="M-34.2,369.9c-36.01,0-65.3,29.29-65.3,65.3s29.29,65.3,65.3,65.3,65.3-29.29,65.3-65.3S1.81,369.9-34.2,369.9ZM-34.2,379.9c28.8,0,52.54,22.14,55.07,50.3H-11.57c-2.29-10.39-11.57-18.18-22.63-18.18s-20.34,7.79-22.63,18.18h-32.44c2.53-28.16,26.27-50.3,55.07-50.3ZM-21.02,435.2c0,1.77-.35,3.46-.99,5-1.97,4.8-6.69,8.18-12.19,8.18s-10.22-3.38-12.19-8.18c-.64-1.54-.99-3.23-.99-5s.35-3.46.99-5c1.97-4.8,6.69-8.18,12.19-8.18s10.22,3.38,12.19,8.18c.64,1.54.99,3.23.99,5ZM-34.2,490.5c-28.8,0-52.54-22.14-55.07-50.3h32.44c2.29,10.39,11.57,18.18,22.63,18.18s20.34-7.79,22.63-18.18H20.87c-2.53,28.16-26.27,50.3-55.07,50.3Z"/>
        </g>
        <g>
          <path class="cls-2" d="M2020.87,40.2c-2.53,28.16-26.27,50.3-55.07,50.3s-52.54-22.14-55.07-50.3h32.44c2.29,10.39,11.57,18.18,22.63,18.18s20.34-7.79,22.63-18.18h32.44Z"/>
          <path class="cls-5" d="M2020.87,30.2h-32.44c-2.29-10.39-11.57-18.18-22.63-18.18s-20.34,7.79-22.63,18.18h-32.44c2.53-28.16,26.27-50.3,55.07-50.3s52.54,22.14,55.07,50.3Z"/>
          <path d="M1965.8-30.1c-36.01,0-65.3,29.29-65.3,65.3s29.29,65.3,65.3,65.3,65.3-29.29,65.3-65.3-29.29-65.3-65.3-65.3ZM1965.8-20.1c28.8,0,52.54,22.14,55.07,50.3h-32.44c-2.29-10.39-11.57-18.18-22.63-18.18s-20.34,7.79-22.63,18.18h-32.44c2.53-28.16,26.27-50.3,55.07-50.3ZM1978.98,35.2c0,1.77-.35,3.46-.99,5-1.97,4.8-6.69,8.18-12.19,8.18s-10.22-3.38-12.19-8.18c-.64-1.54-.99-3.23-.99-5s.35-3.46.99-5c1.97-4.8,6.69-8.18,12.19-8.18s10.22,3.38,12.19,8.18c.64,1.54.99,3.23.99,5ZM1965.8,90.5c-28.8,0-52.54-22.14-55.07-50.3h32.44c2.29,10.39,11.57,18.18,22.63,18.18s20.34-7.79,22.63-18.18h32.44c-2.53,28.16-26.27,50.3-55.07,50.3Z"/>
          <path class="cls-2" d="M1978.98,35.2c0,1.77-.35,3.46-.99,5-1.97,4.8-6.69,8.18-12.19,8.18s-10.22-3.38-12.19-8.18c-.64-1.54-.99-3.23-.99-5s.35-3.46.99-5c1.97-4.8,6.69-8.18,12.19-8.18s10.22,3.38,12.19,8.18c.64,1.54.99,3.23.99,5Z"/>
        </g>
        <g>
          <path class="cls-2" d="M1720.87,140.2c-2.53,28.16-26.27,50.3-55.07,50.3s-52.54-22.14-55.07-50.3h32.44c2.29,10.39,11.57,18.18,22.63,18.18s20.34-7.79,22.63-18.18h32.44Z"/>
          <path class="cls-5" d="M1720.87,130.2h-32.44c-2.29-10.39-11.57-18.18-22.63-18.18s-20.34,7.79-22.63,18.18h-32.44c2.53-28.16,26.27-50.3,55.07-50.3s52.54,22.14,55.07,50.3Z"/>
          <path d="M1665.8,69.9c-36.01,0-65.3,29.29-65.3,65.3s29.29,65.3,65.3,65.3,65.3-29.29,65.3-65.3-29.29-65.3-65.3-65.3ZM1665.8,79.9c28.8,0,52.54,22.14,55.07,50.3h-32.44c-2.29-10.39-11.57-18.18-22.63-18.18s-20.34,7.79-22.63,18.18h-32.44c2.53-28.16,26.27-50.3,55.07-50.3ZM1678.98,135.2c0,1.77-.35,3.46-.99,5-1.97,4.8-6.69,8.18-12.19,8.18s-10.22-3.38-12.19-8.18c-.64-1.54-.99-3.23-.99-5s.35-3.46.99-5c1.97-4.8,6.69-8.18,12.19-8.18s10.22,3.38,12.19,8.18c.64,1.54.99,3.23.99,5ZM1665.8,190.5c-28.8,0-52.54-22.14-55.07-50.3h32.44c2.29,10.39,11.57,18.18,22.63,18.18s20.34-7.79,22.63-18.18h32.44c-2.53,28.16-26.27,50.3-55.07,50.3Z"/>
          <path class="cls-2" d="M1678.98,135.2c0,1.77-.35,3.46-.99,5-1.97,4.8-6.69,8.18-12.19,8.18s-10.22-3.38-12.19-8.18c-.64-1.54-.99-3.23-.99-5s.35-3.46.99-5c1.97-4.8,6.69-8.18,12.19-8.18s10.22,3.38,12.19,8.18c.64,1.54.99,3.23.99,5Z"/>
        </g>
        <g>
          <path class="cls-2" d="M1420.87,240.2c-2.53,28.16-26.27,50.3-55.07,50.3s-52.54-22.14-55.07-50.3h32.44c2.29,10.39,11.57,18.18,22.63,18.18s20.34-7.79,22.63-18.18h32.44Z"/>
          <path class="cls-5" d="M1420.87,230.2h-32.44c-2.29-10.39-11.57-18.18-22.63-18.18s-20.34,7.79-22.63,18.18h-32.44c2.53-28.16,26.27-50.3,55.07-50.3s52.54,22.14,55.07,50.3Z"/>
          <path d="M1365.8,169.9c-36.01,0-65.3,29.29-65.3,65.3s29.29,65.3,65.3,65.3,65.3-29.29,65.3-65.3-29.29-65.3-65.3-65.3ZM1365.8,179.9c28.8,0,52.54,22.14,55.07,50.3h-32.44c-2.29-10.39-11.57-18.18-22.63-18.18s-20.34,7.79-22.63,18.18h-32.44c2.53-28.16,26.27-50.3,55.07-50.3ZM1378.98,235.2c0,1.77-.35,3.46-.99,5-1.97,4.8-6.69,8.18-12.19,8.18s-10.22-3.38-12.19-8.18c-.64-1.54-.99-3.23-.99-5s.35-3.46.99-5c1.97-4.8,6.69-8.18,12.19-8.18s10.22,3.38,12.19,8.18c.64,1.54.99,3.23.99,5ZM1365.8,290.5c-28.8,0-52.54-22.14-55.07-50.3h32.44c2.29,10.39,11.57,18.18,22.63,18.18s20.34-7.79,22.63-18.18h32.44c-2.53,28.16-26.27,50.3-55.07,50.3Z"/>
          <path class="cls-2" d="M1378.98,235.2c0,1.77-.35,3.46-.99,5-1.97,4.8-6.69,8.18-12.19,8.18s-10.22-3.38-12.19-8.18c-.64-1.54-.99-3.23-.99-5s.35-3.46.99-5c1.97-4.8,6.69-8.18,12.19-8.18s10.22,3.38,12.19,8.18c.64,1.54.99,3.23.99,5Z"/>
        </g>
        <g>
          <path class="cls-2" d="M1120.87,340.2c-2.53,28.16-26.27,50.3-55.07,50.3s-52.54-22.14-55.07-50.3h32.44c2.29,10.39,11.57,18.18,22.63,18.18s20.34-7.79,22.63-18.18h32.44Z"/>
          <path class="cls-5" d="M1120.87,330.2h-32.44c-2.29-10.39-11.57-18.18-22.63-18.18s-20.34,7.79-22.63,18.18h-32.44c2.53-28.16,26.27-50.3,55.07-50.3s52.54,22.14,55.07,50.3Z"/>
          <path d="M1065.8,269.9c-36.01,0-65.3,29.29-65.3,65.3s29.29,65.3,65.3,65.3,65.3-29.29,65.3-65.3-29.29-65.3-65.3-65.3ZM1065.8,279.9c28.8,0,52.54,22.14,55.07,50.3h-32.44c-2.29-10.39-11.57-18.18-22.63-18.18s-20.34,7.79-22.63,18.18h-32.44c2.53-28.16,26.27-50.3,55.07-50.3ZM1078.98,335.2c0,1.77-.35,3.46-.99,5-1.97,4.8-6.69,8.18-12.19,8.18s-10.22-3.38-12.19-8.18c-.64-1.54-.99-3.23-.99-5s.35-3.46.99-5c1.97-4.8,6.69-8.18,12.19-8.18s10.22,3.38,12.19,8.18c.64,1.54.99,3.23.99,5ZM1065.8,390.5c-28.8,0-52.54-22.14-55.07-50.3h32.44c2.29,10.39,11.57,18.18,22.63,18.18s20.34-7.79,22.63-18.18h32.44c-2.53,28.16-26.27,50.3-55.07,50.3Z"/>
          <path class="cls-2" d="M1078.98,335.2c0,1.77-.35,3.46-.99,5-1.97,4.8-6.69,8.18-12.19,8.18s-10.22-3.38-12.19-8.18c-.64-1.54-.99-3.23-.99-5s.35-3.46.99-5c1.97-4.8,6.69-8.18,12.19-8.18s10.22,3.38,12.19,8.18c.64,1.54.99,3.23.99,5Z"/>
        </g>
        <g>
          <path class="cls-2" d="M820.87,440.2c-2.53,28.16-26.27,50.3-55.07,50.3s-52.54-22.14-55.07-50.3h32.44c2.29,10.39,11.57,18.18,22.63,18.18s20.34-7.79,22.63-18.18h32.44Z"/>
          <path class="cls-5" d="M820.87,430.2h-32.44c-2.29-10.39-11.57-18.18-22.63-18.18s-20.34,7.79-22.63,18.18h-32.44c2.53-28.16,26.27-50.3,55.07-50.3s52.54,22.14,55.07,50.3Z"/>
          <path d="M765.8,369.9c-36.01,0-65.3,29.29-65.3,65.3s29.29,65.3,65.3,65.3,65.3-29.29,65.3-65.3-29.29-65.3-65.3-65.3ZM765.8,379.9c28.8,0,52.54,22.14,55.07,50.3h-32.44c-2.29-10.39-11.57-18.18-22.63-18.18s-20.34,7.79-22.63,18.18h-32.44c2.53-28.16,26.27-50.3,55.07-50.3ZM778.98,435.2c0,1.77-.35,3.46-.99,5-1.97,4.8-6.69,8.18-12.19,8.18s-10.22-3.38-12.19-8.18c-.64-1.54-.99-3.23-.99-5s.35-3.46.99-5c1.97-4.8,6.69-8.18,12.19-8.18s10.22,3.38,12.19,8.18c.64,1.54.99,3.23.99,5ZM765.8,490.5c-28.8,0-52.54-22.14-55.07-50.3h32.44c2.29,10.39,11.57,18.18,22.63,18.18s20.34-7.79,22.63-18.18h32.44c-2.53,28.16-26.27,50.3-55.07,50.3Z"/>
          <path class="cls-2" d="M778.98,435.2c0,1.77-.35,3.46-.99,5-1.97,4.8-6.69,8.18-12.19,8.18s-10.22-3.38-12.19-8.18c-.64-1.54-.99-3.23-.99-5s.35-3.46.99-5c1.97-4.8,6.69-8.18,12.19-8.18s10.22,3.38,12.19,8.18c.64,1.54.99,3.23.99,5Z"/>
        </g>
        <g>
          <path class="cls-2" d="M520.87,540.2c-2.53,28.16-26.27,50.3-55.07,50.3s-52.54-22.14-55.07-50.3h32.44c2.29,10.39,11.57,18.18,22.63,18.18s20.34-7.79,22.63-18.18h32.44Z"/>
          <path class="cls-5" d="M520.87,530.2h-32.44c-2.29-10.39-11.57-18.18-22.63-18.18s-20.34,7.79-22.63,18.18h-32.44c2.53-28.16,26.27-50.3,55.07-50.3s52.54,22.14,55.07,50.3Z"/>
          <path d="M465.8,469.9c-36.01,0-65.3,29.29-65.3,65.3s29.29,65.3,65.3,65.3,65.3-29.29,65.3-65.3-29.29-65.3-65.3-65.3ZM465.8,479.9c28.8,0,52.54,22.14,55.07,50.3h-32.44c-2.29-10.39-11.57-18.18-22.63-18.18s-20.34,7.79-22.63,18.18h-32.44c2.53-28.16,26.27-50.3,55.07-50.3ZM478.98,535.2c0,1.77-.35,3.46-.99,5-1.97,4.8-6.69,8.18-12.19,8.18s-10.22-3.38-12.19-8.18c-.64-1.54-.99-3.23-.99-5s.35-3.46.99-5c1.97-4.8,6.69-8.18,12.19-8.18s10.22,3.38,12.19,8.18c.64,1.54.99,3.23.99,5ZM465.8,590.5c-28.8,0-52.54-22.14-55.07-50.3h32.44c2.29,10.39,11.57,18.18,22.63,18.18s20.34-7.79,22.63-18.18h32.44c-2.53,28.16-26.27,50.3-55.07,50.3Z"/>
          <path class="cls-2" d="M478.98,535.2c0,1.77-.35,3.46-.99,5-1.97,4.8-6.69,8.18-12.19,8.18s-10.22-3.38-12.19-8.18c-.64-1.54-.99-3.23-.99-5s.35-3.46.99-5c1.97-4.8,6.69-8.18,12.19-8.18s10.22,3.38,12.19,8.18c.64,1.54.99,3.23.99,5Z"/>
        </g>
        <g>
          <path class="cls-2" d="M220.87,640.2c-2.53,28.16-26.27,50.3-55.07,50.3s-52.54-22.14-55.07-50.3h32.44c2.29,10.39,11.57,18.18,22.63,18.18s20.34-7.79,22.63-18.18h32.44Z"/>
          <path class="cls-5" d="M220.87,630.2h-32.44c-2.29-10.39-11.57-18.18-22.63-18.18s-20.34,7.79-22.63,18.18h-32.44c2.53-28.16,26.27-50.3,55.07-50.3s52.54,22.14,55.07,50.3Z"/>
          <path d="M165.8,569.9c-36.01,0-65.3,29.29-65.3,65.3s29.29,65.3,65.3,65.3,65.3-29.29,65.3-65.3-29.29-65.3-65.3-65.3ZM165.8,579.9c28.8,0,52.54,22.14,55.07,50.3h-32.44c-2.29-10.39-11.57-18.18-22.63-18.18s-20.34,7.79-22.63,18.18h-32.44c2.53-28.16,26.27-50.3,55.07-50.3ZM178.98,635.2c0,1.77-.35,3.46-.99,5-1.97,4.8-6.69,8.18-12.19,8.18s-10.22-3.38-12.19-8.18c-.64-1.54-.99-3.23-.99-5s.35-3.46.99-5c1.97-4.8,6.69-8.18,12.19-8.18s10.22,3.38,12.19,8.18c.64,1.54.99,3.23.99,5ZM165.8,690.5c-28.8,0-52.54-22.14-55.07-50.3h32.44c2.29,10.39,11.57,18.18,22.63,18.18s20.34-7.79,22.63-18.18h32.44c-2.53,28.16-26.27,50.3-55.07,50.3Z"/>
          <path class="cls-2" d="M178.98,635.2c0,1.77-.35,3.46-.99,5-1.97,4.8-6.69,8.18-12.19,8.18s-10.22-3.38-12.19-8.18c-.64-1.54-.99-3.23-.99-5s.35-3.46.99-5c1.97-4.8,6.69-8.18,12.19-8.18s10.22,3.38,12.19,8.18c.64,1.54.99,3.23.99,5Z"/>
        </g>
        <g>
          <path class="cls-2" d="M1920.87,340.2c-2.53,28.16-26.27,50.3-55.07,50.3s-52.54-22.14-55.07-50.3h32.44c2.29,10.39,11.57,18.18,22.63,18.18s20.34-7.79,22.63-18.18h32.44Z"/>
          <path class="cls-5" d="M1920.87,330.2h-32.44c-2.29-10.39-11.57-18.18-22.63-18.18s-20.34,7.79-22.63,18.18h-32.44c2.53-28.16,26.27-50.3,55.07-50.3s52.54,22.14,55.07,50.3Z"/>
          <path d="M1865.8,269.9c-36.01,0-65.3,29.29-65.3,65.3s29.29,65.3,65.3,65.3,65.3-29.29,65.3-65.3-29.29-65.3-65.3-65.3ZM1865.8,279.9c28.8,0,52.54,22.14,55.07,50.3h-32.44c-2.29-10.39-11.57-18.18-22.63-18.18s-20.34,7.79-22.63,18.18h-32.44c2.53-28.16,26.27-50.3,55.07-50.3ZM1878.98,335.2c0,1.77-.35,3.46-.99,5-1.97,4.8-6.69,8.18-12.19,8.18s-10.22-3.38-12.19-8.18c-.64-1.54-.99-3.23-.99-5s.35-3.46.99-5c1.97-4.8,6.69-8.18,12.19-8.18s10.22,3.38,12.19,8.18c.64,1.54.99,3.23.99,5ZM1865.8,390.5c-28.8,0-52.54-22.14-55.07-50.3h32.44c2.29,10.39,11.57,18.18,22.63,18.18s20.34-7.79,22.63-18.18h32.44c-2.53,28.16-26.27,50.3-55.07,50.3Z"/>
          <path class="cls-2" d="M1878.98,335.2c0,1.77-.35,3.46-.99,5-1.97,4.8-6.69,8.18-12.19,8.18s-10.22-3.38-12.19-8.18c-.64-1.54-.99-3.23-.99-5s.35-3.46.99-5c1.97-4.8,6.69-8.18,12.19-8.18s10.22,3.38,12.19,8.18c.64,1.54.99,3.23.99,5Z"/>
        </g>
        <g>
          <path class="cls-2" d="M1620.87,440.2c-2.53,28.16-26.27,50.3-55.07,50.3s-52.54-22.14-55.07-50.3h32.44c2.29,10.39,11.57,18.18,22.63,18.18s20.34-7.79,22.63-18.18h32.44Z"/>
          <path class="cls-5" d="M1620.87,430.2h-32.44c-2.29-10.39-11.57-18.18-22.63-18.18s-20.34,7.79-22.63,18.18h-32.44c2.53-28.16,26.27-50.3,55.07-50.3s52.54,22.14,55.07,50.3Z"/>
          <path d="M1565.8,369.9c-36.01,0-65.3,29.29-65.3,65.3s29.29,65.3,65.3,65.3,65.3-29.29,65.3-65.3-29.29-65.3-65.3-65.3ZM1565.8,379.9c28.8,0,52.54,22.14,55.07,50.3h-32.44c-2.29-10.39-11.57-18.18-22.63-18.18s-20.34,7.79-22.63,18.18h-32.44c2.53-28.16,26.27-50.3,55.07-50.3ZM1578.98,435.2c0,1.77-.35,3.46-.99,5-1.97,4.8-6.69,8.18-12.19,8.18s-10.22-3.38-12.19-8.18c-.64-1.54-.99-3.23-.99-5s.35-3.46.99-5c1.97-4.8,6.69-8.18,12.19-8.18s10.22,3.38,12.19,8.18c.64,1.54.99,3.23.99,5ZM1565.8,490.5c-28.8,0-52.54-22.14-55.07-50.3h32.44c2.29,10.39,11.57,18.18,22.63,18.18s20.34-7.79,22.63-18.18h32.44c-2.53,28.16-26.27,50.3-55.07,50.3Z"/>
          <path class="cls-2" d="M1578.98,435.2c0,1.77-.35,3.46-.99,5-1.97,4.8-6.69,8.18-12.19,8.18s-10.22-3.38-12.19-8.18c-.64-1.54-.99-3.23-.99-5s.35-3.46.99-5c1.97-4.8,6.69-8.18,12.19-8.18s10.22,3.38,12.19,8.18c.64,1.54.99,3.23.99,5Z"/>
        </g>
        <g>
          <path class="cls-2" d="M1320.87,540.2c-2.53,28.16-26.27,50.3-55.07,50.3s-52.54-22.14-55.07-50.3h32.44c2.29,10.39,11.57,18.18,22.63,18.18s20.34-7.79,22.63-18.18h32.44Z"/>
          <path class="cls-5" d="M1320.87,530.2h-32.44c-2.29-10.39-11.57-18.18-22.63-18.18s-20.34,7.79-22.63,18.18h-32.44c2.53-28.16,26.27-50.3,55.07-50.3s52.54,22.14,55.07,50.3Z"/>
          <path d="M1265.8,469.9c-36.01,0-65.3,29.29-65.3,65.3s29.29,65.3,65.3,65.3,65.3-29.29,65.3-65.3-29.29-65.3-65.3-65.3ZM1265.8,479.9c28.8,0,52.54,22.14,55.07,50.3h-32.44c-2.29-10.39-11.57-18.18-22.63-18.18s-20.34,7.79-22.63,18.18h-32.44c2.53-28.16,26.27-50.3,55.07-50.3ZM1278.98,535.2c0,1.77-.35,3.46-.99,5-1.97,4.8-6.69,8.18-12.19,8.18s-10.22-3.38-12.19-8.18c-.64-1.54-.99-3.23-.99-5s.35-3.46.99-5c1.97-4.8,6.69-8.18,12.19-8.18s10.22,3.38,12.19,8.18c.64,1.54.99,3.23.99,5ZM1265.8,590.5c-28.8,0-52.54-22.14-55.07-50.3h32.44c2.29,10.39,11.57,18.18,22.63,18.18s20.34-7.79,22.63-18.18h32.44c-2.53,28.16-26.27,50.3-55.07,50.3Z"/>
          <path class="cls-2" d="M1278.98,535.2c0,1.77-.35,3.46-.99,5-1.97,4.8-6.69,8.18-12.19,8.18s-10.22-3.38-12.19-8.18c-.64-1.54-.99-3.23-.99-5s.35-3.46.99-5c1.97-4.8,6.69-8.18,12.19-8.18s10.22,3.38,12.19,8.18c.64,1.54.99,3.23.99,5Z"/>
        </g>
        <g>
          <path class="cls-2" d="M1020.87,640.2c-2.53,28.16-26.27,50.3-55.07,50.3s-52.54-22.14-55.07-50.3h32.44c2.29,10.39,11.57,18.18,22.63,18.18s20.34-7.79,22.63-18.18h32.44Z"/>
          <path class="cls-5" d="M1020.87,630.2h-32.44c-2.29-10.39-11.57-18.18-22.63-18.18s-20.34,7.79-22.63,18.18h-32.44c2.53-28.16,26.27-50.3,55.07-50.3s52.54,22.14,55.07,50.3Z"/>
          <path d="M965.8,569.9c-36.01,0-65.3,29.29-65.3,65.3s29.29,65.3,65.3,65.3,65.3-29.29,65.3-65.3-29.29-65.3-65.3-65.3ZM965.8,579.9c28.8,0,52.54,22.14,55.07,50.3h-32.44c-2.29-10.39-11.57-18.18-22.63-18.18s-20.34,7.79-22.63,18.18h-32.44c2.53-28.16,26.27-50.3,55.07-50.3ZM978.98,635.2c0,1.77-.35,3.46-.99,5-1.97,4.8-6.69,8.18-12.19,8.18s-10.22-3.38-12.19-8.18c-.64-1.54-.99-3.23-.99-5s.35-3.46.99-5c1.97-4.8,6.69-8.18,12.19-8.18s10.22,3.38,12.19,8.18c.64,1.54.99,3.23.99,5ZM965.8,690.5c-28.8,0-52.54-22.14-55.07-50.3h32.44c2.29,10.39,11.57,18.18,22.63,18.18s20.34-7.79,22.63-18.18h32.44c-2.53,28.16-26.27,50.3-55.07,50.3Z"/>
          <path class="cls-2" d="M978.98,635.2c0,1.77-.35,3.46-.99,5-1.97,4.8-6.69,8.18-12.19,8.18s-10.22-3.38-12.19-8.18c-.64-1.54-.99-3.23-.99-5s.35-3.46.99-5c1.97-4.8,6.69-8.18,12.19-8.18s10.22,3.38,12.19,8.18c.64,1.54.99,3.23.99,5Z"/>
        </g>
        <g>
          <path class="cls-2" d="M720.87,740.2c-2.53,28.16-26.27,50.3-55.07,50.3s-52.54-22.14-55.07-50.3h32.44c2.29,10.39,11.57,18.18,22.63,18.18s20.34-7.79,22.63-18.18h32.44Z"/>
          <path class="cls-5" d="M720.87,730.2h-32.44c-2.29-10.39-11.57-18.18-22.63-18.18s-20.34,7.79-22.63,18.18h-32.44c2.53-28.16,26.27-50.3,55.07-50.3s52.54,22.14,55.07,50.3Z"/>
          <path d="M665.8,669.9c-36.01,0-65.3,29.29-65.3,65.3s29.29,65.3,65.3,65.3,65.3-29.29,65.3-65.3-29.29-65.3-65.3-65.3ZM665.8,679.9c28.8,0,52.54,22.14,55.07,50.3h-32.44c-2.29-10.39-11.57-18.18-22.63-18.18s-20.34,7.79-22.63,18.18h-32.44c2.53-28.16,26.27-50.3,55.07-50.3ZM678.98,735.2c0,1.77-.35,3.46-.99,5-1.97,4.8-6.69,8.18-12.19,8.18s-10.22-3.38-12.19-8.18c-.64-1.54-.99-3.23-.99-5s.35-3.46.99-5c1.97-4.8,6.69-8.18,12.19-8.18s10.22,3.38,12.19,8.18c.64,1.54.99,3.23.99,5ZM665.8,790.5c-28.8,0-52.54-22.14-55.07-50.3h32.44c2.29,10.39,11.57,18.18,22.63,18.18s20.34-7.79,22.63-18.18h32.44c-2.53,28.16-26.27,50.3-55.07,50.3Z"/>
          <path class="cls-2" d="M678.98,735.2c0,1.77-.35,3.46-.99,5-1.97,4.8-6.69,8.18-12.19,8.18s-10.22-3.38-12.19-8.18c-.64-1.54-.99-3.23-.99-5s.35-3.46.99-5c1.97-4.8,6.69-8.18,12.19-8.18s10.22,3.38,12.19,8.18c.64,1.54.99,3.23.99,5Z"/>
        </g>
        <g>
          <path class="cls-2" d="M420.87,840.2c-2.53,28.16-26.27,50.3-55.07,50.3s-52.54-22.14-55.07-50.3h32.44c2.29,10.39,11.57,18.18,22.63,18.18s20.34-7.79,22.63-18.18h32.44Z"/>
          <path class="cls-5" d="M420.87,830.2h-32.44c-2.29-10.39-11.57-18.18-22.63-18.18s-20.34,7.79-22.63,18.18h-32.44c2.53-28.16,26.27-50.3,55.07-50.3s52.54,22.14,55.07,50.3Z"/>
          <path d="M365.8,769.9c-36.01,0-65.3,29.29-65.3,65.3s29.29,65.3,65.3,65.3,65.3-29.29,65.3-65.3-29.29-65.3-65.3-65.3ZM365.8,779.9c28.8,0,52.54,22.14,55.07,50.3h-32.44c-2.29-10.39-11.57-18.18-22.63-18.18s-20.34,7.79-22.63,18.18h-32.44c2.53-28.16,26.27-50.3,55.07-50.3ZM378.98,835.2c0,1.77-.35,3.46-.99,5-1.97,4.8-6.69,8.18-12.19,8.18s-10.22-3.38-12.19-8.18c-.64-1.54-.99-3.23-.99-5s.35-3.46.99-5c1.97-4.8,6.69-8.18,12.19-8.18s10.22,3.38,12.19,8.18c.64,1.54.99,3.23.99,5ZM365.8,890.5c-28.8,0-52.54-22.14-55.07-50.3h32.44c2.29,10.39,11.57,18.18,22.63,18.18s20.34-7.79,22.63-18.18h32.44c-2.53,28.16-26.27,50.3-55.07,50.3Z"/>
          <path class="cls-2" d="M378.98,835.2c0,1.77-.35,3.46-.99,5-1.97,4.8-6.69,8.18-12.19,8.18s-10.22-3.38-12.19-8.18c-.64-1.54-.99-3.23-.99-5s.35-3.46.99-5c1.97-4.8,6.69-8.18,12.19-8.18s10.22,3.38,12.19,8.18c.64,1.54.99,3.23.99,5Z"/>
        </g>
        <g>
          <path class="cls-2" d="M120.87,940.2c-2.53,28.16-26.27,50.3-55.07,50.3s-52.54-22.14-55.07-50.3h32.44c2.29,10.39,11.57,18.18,22.63,18.18s20.34-7.79,22.63-18.18h32.44Z"/>
          <path class="cls-5" d="M120.87,930.2h-32.44c-2.29-10.39-11.57-18.18-22.63-18.18s-20.34,7.79-22.63,18.18H10.73c2.53-28.16,26.27-50.3,55.07-50.3s52.54,22.14,55.07,50.3Z"/>
          <path d="M65.8,869.9c-36.01,0-65.3,29.29-65.3,65.3s29.29,65.3,65.3,65.3,65.3-29.29,65.3-65.3-29.29-65.3-65.3-65.3ZM65.8,879.9c28.8,0,52.54,22.14,55.07,50.3h-32.44c-2.29-10.39-11.57-18.18-22.63-18.18s-20.34,7.79-22.63,18.18H10.73c2.53-28.16,26.27-50.3,55.07-50.3ZM78.98,935.2c0,1.77-.35,3.46-.99,5-1.97,4.8-6.69,8.18-12.19,8.18s-10.22-3.38-12.19-8.18c-.64-1.54-.99-3.23-.99-5s.35-3.46.99-5c1.97-4.8,6.69-8.18,12.19-8.18s10.22,3.38,12.19,8.18c.64,1.54.99,3.23.99,5ZM65.8,990.5c-28.8,0-52.54-22.14-55.07-50.3h32.44c2.29,10.39,11.57,18.18,22.63,18.18s20.34-7.79,22.63-18.18h32.44c-2.53,28.16-26.27,50.3-55.07,50.3Z"/>
          <path class="cls-2" d="M78.98,935.2c0,1.77-.35,3.46-.99,5-1.97,4.8-6.69,8.18-12.19,8.18s-10.22-3.38-12.19-8.18c-.64-1.54-.99-3.23-.99-5s.35-3.46.99-5c1.97-4.8,6.69-8.18,12.19-8.18s10.22,3.38,12.19,8.18c.64,1.54.99,3.23.99,5Z"/>
        </g>
        <g>
          <path class="cls-2" d="M2120.87,540.2c-2.53,28.16-26.27,50.3-55.07,50.3s-52.54-22.14-55.07-50.3h32.44c2.29,10.39,11.57,18.18,22.63,18.18s20.34-7.79,22.63-18.18h32.44Z"/>
          <path class="cls-5" d="M2120.87,530.2h-32.44c-2.29-10.39-11.57-18.18-22.63-18.18s-20.34,7.79-22.63,18.18h-32.44c2.53-28.16,26.27-50.3,55.07-50.3s52.54,22.14,55.07,50.3Z"/>
          <path d="M2065.8,469.9c-36.01,0-65.3,29.29-65.3,65.3s29.29,65.3,65.3,65.3,65.3-29.29,65.3-65.3-29.29-65.3-65.3-65.3ZM2065.8,479.9c28.8,0,52.54,22.14,55.07,50.3h-32.44c-2.29-10.39-11.57-18.18-22.63-18.18s-20.34,7.79-22.63,18.18h-32.44c2.53-28.16,26.27-50.3,55.07-50.3ZM2078.98,535.2c0,1.77-.35,3.46-.99,5-1.97,4.8-6.69,8.18-12.19,8.18s-10.22-3.38-12.19-8.18c-.64-1.54-.99-3.23-.99-5s.35-3.46.99-5c1.97-4.8,6.69-8.18,12.19-8.18s10.22,3.38,12.19,8.18c.64,1.54.99,3.23.99,5ZM2065.8,590.5c-28.8,0-52.54-22.14-55.07-50.3h32.44c2.29,10.39,11.57,18.18,22.63,18.18s20.34-7.79,22.63-18.18h32.44c-2.53,28.16-26.27,50.3-55.07,50.3Z"/>
          <path class="cls-2" d="M2078.98,535.2c0,1.77-.35,3.46-.99,5-1.97,4.8-6.69,8.18-12.19,8.18s-10.22-3.38-12.19-8.18c-.64-1.54-.99-3.23-.99-5s.35-3.46.99-5c1.97-4.8,6.69-8.18,12.19-8.18s10.22,3.38,12.19,8.18c.64,1.54.99,3.23.99,5Z"/>
        </g>
        <g>
          <path class="cls-2" d="M1820.87,640.2c-2.53,28.16-26.27,50.3-55.07,50.3s-52.54-22.14-55.07-50.3h32.44c2.29,10.39,11.57,18.18,22.63,18.18s20.34-7.79,22.63-18.18h32.44Z"/>
          <path class="cls-5" d="M1820.87,630.2h-32.44c-2.29-10.39-11.57-18.18-22.63-18.18s-20.34,7.79-22.63,18.18h-32.44c2.53-28.16,26.27-50.3,55.07-50.3s52.54,22.14,55.07,50.3Z"/>
          <path d="M1765.8,569.9c-36.01,0-65.3,29.29-65.3,65.3s29.29,65.3,65.3,65.3,65.3-29.29,65.3-65.3-29.29-65.3-65.3-65.3ZM1765.8,579.9c28.8,0,52.54,22.14,55.07,50.3h-32.44c-2.29-10.39-11.57-18.18-22.63-18.18s-20.34,7.79-22.63,18.18h-32.44c2.53-28.16,26.27-50.3,55.07-50.3ZM1778.98,635.2c0,1.77-.35,3.46-.99,5-1.97,4.8-6.69,8.18-12.19,8.18s-10.22-3.38-12.19-8.18c-.64-1.54-.99-3.23-.99-5s.35-3.46.99-5c1.97-4.8,6.69-8.18,12.19-8.18s10.22,3.38,12.19,8.18c.64,1.54.99,3.23.99,5ZM1765.8,690.5c-28.8,0-52.54-22.14-55.07-50.3h32.44c2.29,10.39,11.57,18.18,22.63,18.18s20.34-7.79,22.63-18.18h32.44c-2.53,28.16-26.27,50.3-55.07,50.3Z"/>
          <path class="cls-2" d="M1778.98,635.2c0,1.77-.35,3.46-.99,5-1.97,4.8-6.69,8.18-12.19,8.18s-10.22-3.38-12.19-8.18c-.64-1.54-.99-3.23-.99-5s.35-3.46.99-5c1.97-4.8,6.69-8.18,12.19-8.18s10.22,3.38,12.19,8.18c.64,1.54.99,3.23.99,5Z"/>
        </g>
        <g>
          <path class="cls-2" d="M1520.87,740.2c-2.53,28.16-26.27,50.3-55.07,50.3s-52.54-22.14-55.07-50.3h32.44c2.29,10.39,11.57,18.18,22.63,18.18s20.34-7.79,22.63-18.18h32.44Z"/>
          <path class="cls-5" d="M1520.87,730.2h-32.44c-2.29-10.39-11.57-18.18-22.63-18.18s-20.34,7.79-22.63,18.18h-32.44c2.53-28.16,26.27-50.3,55.07-50.3s52.54,22.14,55.07,50.3Z"/>
          <path d="M1465.8,669.9c-36.01,0-65.3,29.29-65.3,65.3s29.29,65.3,65.3,65.3,65.3-29.29,65.3-65.3-29.29-65.3-65.3-65.3ZM1465.8,679.9c28.8,0,52.54,22.14,55.07,50.3h-32.44c-2.29-10.39-11.57-18.18-22.63-18.18s-20.34,7.79-22.63,18.18h-32.44c2.53-28.16,26.27-50.3,55.07-50.3ZM1478.98,735.2c0,1.77-.35,3.46-.99,5-1.97,4.8-6.69,8.18-12.19,8.18s-10.22-3.38-12.19-8.18c-.64-1.54-.99-3.23-.99-5s.35-3.46.99-5c1.97-4.8,6.69-8.18,12.19-8.18s10.22,3.38,12.19,8.18c.64,1.54.99,3.23.99,5ZM1465.8,790.5c-28.8,0-52.54-22.14-55.07-50.3h32.44c2.29,10.39,11.57,18.18,22.63,18.18s20.34-7.79,22.63-18.18h32.44c-2.53,28.16-26.27,50.3-55.07,50.3Z"/>
          <path class="cls-2" d="M1478.98,735.2c0,1.77-.35,3.46-.99,5-1.97,4.8-6.69,8.18-12.19,8.18s-10.22-3.38-12.19-8.18c-.64-1.54-.99-3.23-.99-5s.35-3.46.99-5c1.97-4.8,6.69-8.18,12.19-8.18s10.22,3.38,12.19,8.18c.64,1.54.99,3.23.99,5Z"/>
        </g>
        <g>
          <path class="cls-2" d="M1220.87,840.2c-2.53,28.16-26.27,50.3-55.07,50.3s-52.54-22.14-55.07-50.3h32.44c2.29,10.39,11.57,18.18,22.63,18.18s20.34-7.79,22.63-18.18h32.44Z"/>
          <path class="cls-5" d="M1220.87,830.2h-32.44c-2.29-10.39-11.57-18.18-22.63-18.18s-20.34,7.79-22.63,18.18h-32.44c2.53-28.16,26.27-50.3,55.07-50.3s52.54,22.14,55.07,50.3Z"/>
          <path d="M1165.8,769.9c-36.01,0-65.3,29.29-65.3,65.3s29.29,65.3,65.3,65.3,65.3-29.29,65.3-65.3-29.29-65.3-65.3-65.3ZM1165.8,779.9c28.8,0,52.54,22.14,55.07,50.3h-32.44c-2.29-10.39-11.57-18.18-22.63-18.18s-20.34,7.79-22.63,18.18h-32.44c2.53-28.16,26.27-50.3,55.07-50.3ZM1178.98,835.2c0,1.77-.35,3.46-.99,5-1.97,4.8-6.69,8.18-12.19,8.18s-10.22-3.38-12.19-8.18c-.64-1.54-.99-3.23-.99-5s.35-3.46.99-5c1.97-4.8,6.69-8.18,12.19-8.18s10.22,3.38,12.19,8.18c.64,1.54.99,3.23.99,5ZM1165.8,890.5c-28.8,0-52.54-22.14-55.07-50.3h32.44c2.29,10.39,11.57,18.18,22.63,18.18s20.34-7.79,22.63-18.18h32.44c-2.53,28.16-26.27,50.3-55.07,50.3Z"/>
          <path class="cls-2" d="M1178.98,835.2c0,1.77-.35,3.46-.99,5-1.97,4.8-6.69,8.18-12.19,8.18s-10.22-3.38-12.19-8.18c-.64-1.54-.99-3.23-.99-5s.35-3.46.99-5c1.97-4.8,6.69-8.18,12.19-8.18s10.22,3.38,12.19,8.18c.64,1.54.99,3.23.99,5Z"/>
        </g>
        <g>
          <path class="cls-2" d="M920.87,940.2c-2.53,28.16-26.27,50.3-55.07,50.3s-52.54-22.14-55.07-50.3h32.44c2.29,10.39,11.57,18.18,22.63,18.18s20.34-7.79,22.63-18.18h32.44Z"/>
          <path class="cls-5" d="M920.87,930.2h-32.44c-2.29-10.39-11.57-18.18-22.63-18.18s-20.34,7.79-22.63,18.18h-32.44c2.53-28.16,26.27-50.3,55.07-50.3s52.54,22.14,55.07,50.3Z"/>
          <path d="M865.8,869.9c-36.01,0-65.3,29.29-65.3,65.3s29.29,65.3,65.3,65.3,65.3-29.29,65.3-65.3-29.29-65.3-65.3-65.3ZM865.8,879.9c28.8,0,52.54,22.14,55.07,50.3h-32.44c-2.29-10.39-11.57-18.18-22.63-18.18s-20.34,7.79-22.63,18.18h-32.44c2.53-28.16,26.27-50.3,55.07-50.3ZM878.98,935.2c0,1.77-.35,3.46-.99,5-1.97,4.8-6.69,8.18-12.19,8.18s-10.22-3.38-12.19-8.18c-.64-1.54-.99-3.23-.99-5s.35-3.46.99-5c1.97-4.8,6.69-8.18,12.19-8.18s10.22,3.38,12.19,8.18c.64,1.54.99,3.23.99,5ZM865.8,990.5c-28.8,0-52.54-22.14-55.07-50.3h32.44c2.29,10.39,11.57,18.18,22.63,18.18s20.34-7.79,22.63-18.18h32.44c-2.53,28.16-26.27,50.3-55.07,50.3Z"/>
          <path class="cls-2" d="M878.98,935.2c0,1.77-.35,3.46-.99,5-1.97,4.8-6.69,8.18-12.19,8.18s-10.22-3.38-12.19-8.18c-.64-1.54-.99-3.23-.99-5s.35-3.46.99-5c1.97-4.8,6.69-8.18,12.19-8.18s10.22,3.38,12.19,8.18c.64,1.54.99,3.23.99,5Z"/>
        </g>
        <g>
          <path class="cls-5" d="M620.87,1030.2h-32.44c-2.29-10.39-11.57-18.18-22.63-18.18s-20.34,7.79-22.63,18.18h-32.44c2.53-28.16,26.27-50.3,55.07-50.3s52.54,22.14,55.07,50.3Z"/>
          <path d="M565.8,969.9c-36.01,0-65.3,29.29-65.3,65.3s29.29,65.3,65.3,65.3,65.3-29.29,65.3-65.3-29.29-65.3-65.3-65.3ZM565.8,979.9c28.8,0,52.54,22.14,55.07,50.3h-32.44c-2.29-10.39-11.57-18.18-22.63-18.18s-20.34,7.79-22.63,18.18h-32.44c2.53-28.16,26.27-50.3,55.07-50.3ZM578.98,1035.2c0,1.77-.35,3.46-.99,5-1.97,4.8-6.69,8.18-12.19,8.18s-10.22-3.38-12.19-8.18c-.64-1.54-.99-3.23-.99-5s.35-3.46.99-5c1.97-4.8,6.69-8.18,12.19-8.18s10.22,3.38,12.19,8.18c.64,1.54.99,3.23.99,5ZM565.8,1090.5c-28.8,0-52.54-22.14-55.07-50.3h32.44c2.29,10.39,11.57,18.18,22.63,18.18s20.34-7.79,22.63-18.18h32.44c-2.53,28.16-26.27,50.3-55.07,50.3Z"/>
        </g>
        <g>
          <path class="cls-2" d="M2020.87,840.2c-2.53,28.16-26.27,50.3-55.07,50.3s-52.54-22.14-55.07-50.3h32.44c2.29,10.39,11.57,18.18,22.63,18.18s20.34-7.79,22.63-18.18h32.44Z"/>
          <path class="cls-5" d="M2020.87,830.2h-32.44c-2.29-10.39-11.57-18.18-22.63-18.18s-20.34,7.79-22.63,18.18h-32.44c2.53-28.16,26.27-50.3,55.07-50.3s52.54,22.14,55.07,50.3Z"/>
          <path d="M1965.8,769.9c-36.01,0-65.3,29.29-65.3,65.3s29.29,65.3,65.3,65.3,65.3-29.29,65.3-65.3-29.29-65.3-65.3-65.3ZM1965.8,779.9c28.8,0,52.54,22.14,55.07,50.3h-32.44c-2.29-10.39-11.57-18.18-22.63-18.18s-20.34,7.79-22.63,18.18h-32.44c2.53-28.16,26.27-50.3,55.07-50.3ZM1978.98,835.2c0,1.77-.35,3.46-.99,5-1.97,4.8-6.69,8.18-12.19,8.18s-10.22-3.38-12.19-8.18c-.64-1.54-.99-3.23-.99-5s.35-3.46.99-5c1.97-4.8,6.69-8.18,12.19-8.18s10.22,3.38,12.19,8.18c.64,1.54.99,3.23.99,5ZM1965.8,890.5c-28.8,0-52.54-22.14-55.07-50.3h32.44c2.29,10.39,11.57,18.18,22.63,18.18s20.34-7.79,22.63-18.18h32.44c-2.53,28.16-26.27,50.3-55.07,50.3Z"/>
          <path class="cls-2" d="M1978.98,835.2c0,1.77-.35,3.46-.99,5-1.97,4.8-6.69,8.18-12.19,8.18s-10.22-3.38-12.19-8.18c-.64-1.54-.99-3.23-.99-5s.35-3.46.99-5c1.97-4.8,6.69-8.18,12.19-8.18s10.22,3.38,12.19,8.18c.64,1.54.99,3.23.99,5Z"/>
        </g>
        <g>
          <path class="cls-2" d="M1720.87,940.2c-2.53,28.16-26.27,50.3-55.07,50.3s-52.54-22.14-55.07-50.3h32.44c2.29,10.39,11.57,18.18,22.63,18.18s20.34-7.79,22.63-18.18h32.44Z"/>
          <path class="cls-5" d="M1720.87,930.2h-32.44c-2.29-10.39-11.57-18.18-22.63-18.18s-20.34,7.79-22.63,18.18h-32.44c2.53-28.16,26.27-50.3,55.07-50.3s52.54,22.14,55.07,50.3Z"/>
          <path d="M1665.8,869.9c-36.01,0-65.3,29.29-65.3,65.3s29.29,65.3,65.3,65.3,65.3-29.29,65.3-65.3-29.29-65.3-65.3-65.3ZM1665.8,879.9c28.8,0,52.54,22.14,55.07,50.3h-32.44c-2.29-10.39-11.57-18.18-22.63-18.18s-20.34,7.79-22.63,18.18h-32.44c2.53-28.16,26.27-50.3,55.07-50.3ZM1678.98,935.2c0,1.77-.35,3.46-.99,5-1.97,4.8-6.69,8.18-12.19,8.18s-10.22-3.38-12.19-8.18c-.64-1.54-.99-3.23-.99-5s.35-3.46.99-5c1.97-4.8,6.69-8.18,12.19-8.18s10.22,3.38,12.19,8.18c.64,1.54.99,3.23.99,5ZM1665.8,990.5c-28.8,0-52.54-22.14-55.07-50.3h32.44c2.29,10.39,11.57,18.18,22.63,18.18s20.34-7.79,22.63-18.18h32.44c-2.53,28.16-26.27,50.3-55.07,50.3Z"/>
          <path class="cls-2" d="M1678.98,935.2c0,1.77-.35,3.46-.99,5-1.97,4.8-6.69,8.18-12.19,8.18s-10.22-3.38-12.19-8.18c-.64-1.54-.99-3.23-.99-5s.35-3.46.99-5c1.97-4.8,6.69-8.18,12.19-8.18s10.22,3.38,12.19,8.18c.64,1.54.99,3.23.99,5Z"/>
        </g>
        <g>
          <path class="cls-5" d="M1420.87,1030.2h-32.44c-2.29-10.39-11.57-18.18-22.63-18.18s-20.34,7.79-22.63,18.18h-32.44c2.53-28.16,26.27-50.3,55.07-50.3s52.54,22.14,55.07,50.3Z"/>
          <path d="M1365.8,969.9c-36.01,0-65.3,29.29-65.3,65.3s29.29,65.3,65.3,65.3,65.3-29.29,65.3-65.3-29.29-65.3-65.3-65.3ZM1365.8,979.9c28.8,0,52.54,22.14,55.07,50.3h-32.44c-2.29-10.39-11.57-18.18-22.63-18.18s-20.34,7.79-22.63,18.18h-32.44c2.53-28.16,26.27-50.3,55.07-50.3ZM1378.98,1035.2c0,1.77-.35,3.46-.99,5-1.97,4.8-6.69,8.18-12.19,8.18s-10.22-3.38-12.19-8.18c-.64-1.54-.99-3.23-.99-5s.35-3.46.99-5c1.97-4.8,6.69-8.18,12.19-8.18s10.22,3.38,12.19,8.18c.64,1.54.99,3.23.99,5ZM1365.8,1090.5c-28.8,0-52.54-22.14-55.07-50.3h32.44c2.29,10.39,11.57,18.18,22.63,18.18s20.34-7.79,22.63-18.18h32.44c-2.53,28.16-26.27,50.3-55.07,50.3Z"/>
        </g>
      </g>
      <rect class="cls-1" x=".5" y=".5" width="2100" height="1000"/>
    </g>
  </g>
</svg>